<svg xmlns="http://www.w3.org/2000/svg" xmlns:xlink="http://www.w3.org/1999/xlink" width="944" zoomAndPan="magnify" viewBox="0 0 708.75 567.000005" height="755" preserveAspectRatio="xMidYMid meet" version="1.0"><defs><clipPath id="9d370d87b0"><path d="M 102.714844 62.949219 L 605.699219 62.949219 L 605.699219 565.929688 L 102.714844 565.929688 Z M 102.714844 62.949219 " clip-rule="nonzero"/></clipPath><clipPath id="c56727ea6d"><path d="M 354.207031 62.949219 C 215.3125 62.949219 102.714844 175.542969 102.714844 314.441406 C 102.714844 453.335938 215.3125 565.929688 354.207031 565.929688 C 493.101562 565.929688 605.699219 453.335938 605.699219 314.441406 C 605.699219 175.542969 493.101562 62.949219 354.207031 62.949219 Z M 354.207031 62.949219 " clip-rule="nonzero"/></clipPath><clipPath id="dd46a3c284"><path d="M 252 61 L 605.835938 61 L 605.835938 475 L 252 475 Z M 252 61 " clip-rule="nonzero"/></clipPath><clipPath id="3eb36d4857"><path d="M 559 61 L 605.835938 61 L 605.835938 475 L 559 475 Z M 559 61 " clip-rule="nonzero"/></clipPath><clipPath id="a03d375f91"><path d="M 351 22.527344 L 508 22.527344 L 508 102 L 351 102 Z M 351 22.527344 " clip-rule="nonzero"/></clipPath><clipPath id="1948ca31cc"><path d="M 62.292969 342 L 286 342 L 286 566 L 62.292969 566 Z M 62.292969 342 " clip-rule="nonzero"/></clipPath></defs><g clip-path="url(#9d370d87b0)"><g clip-path="url(#c56727ea6d)"><path fill="#ffbaae" d="M 102.714844 62.949219 L 605.699219 62.949219 L 605.699219 565.929688 L 102.714844 565.929688 Z M 102.714844 62.949219 " fill-opacity="1" fill-rule="nonzero"/></g></g><g clip-path="url(#dd46a3c284)"><path fill="#837683" d="M 585.554688 61.148438 C 596.722656 61.148438 605.832031 70.257812 605.832031 81.425781 L 605.832031 454.542969 C 605.832031 465.710938 596.722656 474.820312 585.554688 474.820312 L 273.273438 474.820312 C 262.105469 474.820312 252.996094 465.710938 252.996094 454.542969 L 252.996094 81.425781 C 252.996094 70.257812 262.105469 61.148438 273.273438 61.148438 Z M 585.554688 61.148438 " fill-opacity="1" fill-rule="evenodd"/></g><g clip-path="url(#3eb36d4857)"><path fill="#685e68" d="M 559.386719 474.820312 L 585.554688 474.820312 C 596.722656 474.820312 605.832031 465.710938 605.832031 454.542969 L 605.832031 81.425781 C 605.832031 70.257812 596.722656 61.148438 585.554688 61.148438 L 559.386719 61.148438 Z M 559.386719 474.820312 " fill-opacity="1" fill-rule="evenodd"/></g><path fill="#eceff1" d="M 568.503906 89.355469 L 290.324219 89.355469 C 285.300781 89.355469 281.207031 93.453125 281.207031 98.476562 L 281.207031 437.492188 C 281.207031 442.515625 285.300781 446.609375 290.324219 446.609375 L 568.503906 446.609375 C 573.527344 446.609375 577.625 442.515625 577.625 437.492188 L 577.625 98.476562 C 577.625 93.453125 573.527344 89.355469 568.503906 89.355469 Z M 568.503906 89.355469 " fill-opacity="1" fill-rule="evenodd"/><path fill="#d1d1d6" d="M 559.386719 446.609375 L 568.503906 446.609375 C 568.792969 446.609375 569.078125 446.597656 569.355469 446.570312 C 573.984375 446.140625 577.625 442.226562 577.625 437.492188 L 577.625 98.476562 C 577.625 93.738281 573.984375 89.828125 569.355469 89.394531 C 569.078125 89.371094 568.792969 89.355469 568.503906 89.355469 L 559.386719 89.355469 Z M 559.386719 446.609375 " fill-opacity="1" fill-rule="evenodd"/><g clip-path="url(#a03d375f91)"><path fill="#e3a76f" d="M 360.460938 48.890625 L 389.367188 48.890625 C 393.085938 48.890625 396.269531 46.796875 397.742188 43.378906 C 403.023438 31.113281 415.214844 22.53125 429.414062 22.53125 C 443.613281 22.53125 455.808594 31.113281 461.085938 43.378906 C 462.558594 46.796875 465.738281 48.890625 469.460938 48.890625 L 498.367188 48.890625 C 503.386719 48.890625 507.484375 52.988281 507.484375 58.007812 L 507.484375 92.496094 C 507.484375 97.515625 503.386719 101.613281 498.367188 101.613281 L 360.460938 101.613281 C 355.441406 101.613281 351.34375 97.515625 351.34375 92.496094 L 351.34375 58.007812 C 351.34375 52.988281 355.441406 48.890625 360.460938 48.890625 Z M 360.460938 48.890625 " fill-opacity="1" fill-rule="evenodd"/></g><path fill="#c48958" d="M 489.246094 92.492188 L 351.34375 92.496094 C 351.34375 97.515625 355.441406 101.613281 360.460938 101.613281 L 498.367188 101.613281 C 503.386719 101.613281 507.484375 97.515625 507.484375 92.496094 L 507.484375 58.007812 C 507.484375 52.984375 503.386719 48.890625 498.363281 48.886719 L 498.363281 83.375 C 498.363281 85.65625 497.515625 87.75 496.121094 89.355469 C 494.449219 91.277344 491.984375 92.492188 489.246094 92.492188 Z M 489.246094 92.492188 " fill-opacity="1" fill-rule="evenodd"/><path fill="#eceff1" d="M 439.902344 50.789062 C 439.902344 51.476562 439.835938 52.160156 439.699219 52.835938 C 439.566406 53.511719 439.367188 54.164062 439.105469 54.800781 C 438.839844 55.4375 438.515625 56.042969 438.132812 56.613281 C 437.753906 57.1875 437.316406 57.71875 436.832031 58.203125 C 436.34375 58.691406 435.8125 59.125 435.242188 59.507812 C 434.667969 59.890625 434.0625 60.214844 433.429688 60.476562 C 432.792969 60.742188 432.136719 60.941406 431.460938 61.074219 C 430.785156 61.207031 430.101562 61.277344 429.414062 61.277344 C 428.726562 61.277344 428.042969 61.207031 427.367188 61.074219 C 426.695312 60.941406 426.039062 60.742188 425.402344 60.476562 C 424.765625 60.214844 424.160156 59.890625 423.589844 59.507812 C 423.015625 59.125 422.484375 58.691406 422 58.203125 C 421.511719 57.71875 421.078125 57.1875 420.695312 56.613281 C 420.3125 56.042969 419.988281 55.4375 419.726562 54.800781 C 419.460938 54.164062 419.261719 53.511719 419.128906 52.835938 C 418.996094 52.160156 418.929688 51.476562 418.929688 50.789062 C 418.929688 50.101562 418.996094 49.417969 419.128906 48.742188 C 419.261719 48.066406 419.460938 47.410156 419.726562 46.777344 C 419.988281 46.140625 420.3125 45.535156 420.695312 44.960938 C 421.078125 44.390625 421.511719 43.859375 422 43.375 C 422.484375 42.886719 423.015625 42.453125 423.589844 42.070312 C 424.160156 41.6875 424.765625 41.363281 425.402344 41.101562 C 426.039062 40.835938 426.695312 40.636719 427.367188 40.503906 C 428.042969 40.367188 428.726562 40.300781 429.414062 40.300781 C 430.101562 40.300781 430.785156 40.367188 431.460938 40.503906 C 432.136719 40.636719 432.792969 40.835938 433.429688 41.101562 C 434.0625 41.363281 434.667969 41.6875 435.242188 42.070312 C 435.8125 42.453125 436.34375 42.886719 436.832031 43.375 C 437.316406 43.859375 437.753906 44.390625 438.132812 44.960938 C 438.515625 45.535156 438.839844 46.140625 439.105469 46.777344 C 439.367188 47.410156 439.566406 48.066406 439.699219 48.742188 C 439.835938 49.417969 439.902344 50.101562 439.902344 50.789062 Z M 439.902344 50.789062 " fill-opacity="1" fill-rule="nonzero"/><path fill="#a79ba7" d="M 425.28125 366.261719 C 419.242188 366.261719 414.34375 361.367188 414.34375 355.324219 C 414.34375 349.285156 419.242188 344.390625 425.28125 344.390625 L 538.625 344.390625 C 544.667969 344.390625 549.5625 349.285156 549.5625 355.324219 C 549.5625 361.367188 544.667969 366.261719 538.625 366.261719 Z M 425.28125 159.65625 C 419.242188 159.65625 414.34375 154.761719 414.34375 148.71875 C 414.34375 142.679688 419.242188 137.785156 425.28125 137.785156 L 538.625 137.785156 C 544.667969 137.785156 549.5625 142.679688 549.5625 148.71875 C 549.5625 154.761719 544.667969 159.65625 538.625 159.65625 Z M 425.28125 196.390625 C 419.242188 196.390625 414.34375 191.496094 414.34375 185.457031 C 414.34375 179.417969 419.242188 174.519531 425.28125 174.519531 L 538.625 174.519531 C 544.667969 174.519531 549.5625 179.417969 549.5625 185.457031 C 549.5625 191.496094 544.667969 196.390625 538.625 196.390625 Z M 425.28125 262.957031 C 419.242188 262.957031 414.34375 258.0625 414.34375 252.023438 C 414.34375 245.984375 419.242188 241.085938 425.28125 241.085938 L 538.625 241.085938 C 544.667969 241.085938 549.5625 245.984375 549.5625 252.023438 C 549.5625 258.0625 544.667969 262.957031 538.625 262.957031 Z M 425.28125 299.695312 C 419.242188 299.695312 414.34375 294.800781 414.34375 288.757812 C 414.34375 282.71875 419.242188 277.824219 425.28125 277.824219 L 538.625 277.824219 C 544.667969 277.824219 549.5625 282.71875 549.5625 288.757812 C 549.5625 294.800781 544.667969 299.695312 538.625 299.695312 Z M 425.28125 403 C 419.242188 403 414.34375 398.101562 414.34375 392.0625 C 414.34375 386.023438 419.242188 381.125 425.28125 381.125 L 538.625 381.125 C 544.667969 381.125 549.5625 386.023438 549.5625 392.0625 C 549.5625 398.101562 544.667969 403 538.625 403 Z M 425.28125 403 " fill-opacity="1" fill-rule="evenodd"/><path fill="#6cf5c2" d="M 326.867188 238.195312 L 377.929688 238.195312 C 381.59375 238.195312 384.59375 241.195312 384.59375 244.859375 L 384.59375 295.921875 C 384.59375 299.589844 381.59375 302.589844 377.929688 302.589844 L 326.867188 302.589844 C 323.203125 302.589844 320.203125 299.589844 320.203125 295.921875 L 320.203125 244.859375 C 320.203125 241.195312 323.203125 238.195312 326.867188 238.195312 Z M 326.867188 238.195312 " fill-opacity="1" fill-rule="evenodd"/><path fill="#00e499" d="M 364.257812 238.195312 L 377.929688 238.195312 C 381.59375 238.195312 384.59375 241.195312 384.59375 244.859375 L 384.59375 295.921875 C 384.59375 299.585938 381.59375 302.585938 377.929688 302.585938 L 364.257812 302.585938 C 367.925781 302.585938 370.921875 299.585938 370.921875 295.921875 L 370.921875 244.859375 C 370.921875 241.195312 367.925781 238.195312 364.257812 238.195312 Z M 364.257812 238.195312 " fill-opacity="1" fill-rule="evenodd"/><path fill="#8ac9fe" d="M 326.867188 134.890625 L 377.929688 134.890625 C 381.59375 134.890625 384.59375 137.890625 384.59375 141.558594 L 384.59375 192.617188 C 384.59375 196.285156 381.59375 199.285156 377.929688 199.285156 L 326.867188 199.285156 C 323.203125 199.285156 320.203125 196.285156 320.203125 192.617188 L 320.203125 141.558594 C 320.203125 137.890625 323.203125 134.890625 326.867188 134.890625 Z M 326.867188 134.890625 " fill-opacity="1" fill-rule="evenodd"/><path fill="#60b7ff" d="M 364.257812 134.890625 L 377.929688 134.890625 C 381.59375 134.890625 384.59375 137.890625 384.59375 141.558594 L 384.59375 192.617188 C 384.59375 196.285156 381.59375 199.285156 377.929688 199.285156 L 364.257812 199.285156 C 367.925781 199.285156 370.921875 196.285156 370.921875 192.617188 L 370.921875 141.558594 C 370.921875 137.890625 367.925781 134.890625 364.257812 134.890625 Z M 364.257812 134.890625 " fill-opacity="1" fill-rule="evenodd"/><path fill="#eceff1" d="M 331.601562 379.585938 C 327.617188 375.601562 327.617188 369.140625 331.601562 365.152344 C 335.585938 361.167969 342.046875 361.167969 346.03125 365.152344 L 349.207031 368.328125 L 358.046875 357.402344 C 361.59375 353.019531 368.019531 352.339844 372.402344 355.886719 C 376.78125 359.429688 377.460938 365.855469 373.914062 370.238281 L 357.992188 389.925781 C 357.753906 390.222656 357.5 390.507812 357.226562 390.78125 C 353.242188 394.765625 346.777344 394.765625 342.792969 390.78125 Z M 331.601562 379.585938 " fill-opacity="1" fill-rule="evenodd"/><path fill="#eceff1" d="M 331.601562 276.285156 C 327.617188 272.300781 327.617188 265.839844 331.601562 261.851562 C 335.585938 257.867188 342.046875 257.867188 346.03125 261.851562 L 349.207031 265.027344 L 358.046875 254.097656 C 361.59375 249.71875 368.019531 249.039062 372.402344 252.585938 C 376.78125 256.128906 377.460938 262.554688 373.914062 266.9375 L 357.992188 286.625 C 357.753906 286.921875 357.5 287.207031 357.226562 287.480469 C 353.242188 291.464844 346.777344 291.464844 342.792969 287.480469 Z M 331.601562 276.285156 " fill-opacity="1" fill-rule="evenodd"/><path fill="#eceff1" d="M 331.601562 169.753906 C 327.617188 165.769531 327.617188 159.308594 331.601562 155.320312 C 335.585938 151.335938 342.046875 151.335938 346.03125 155.320312 L 349.207031 158.496094 L 358.046875 147.566406 C 361.59375 143.1875 368.019531 142.507812 372.402344 146.054688 C 376.78125 149.597656 377.460938 156.023438 373.914062 160.40625 L 357.992188 180.09375 C 357.753906 180.386719 357.5 180.671875 357.226562 180.949219 C 353.242188 184.933594 346.777344 184.933594 342.792969 180.949219 Z M 331.601562 169.753906 " fill-opacity="1" fill-rule="evenodd"/><g clip-path="url(#1948ca31cc)"><path fill="#c48958" d="M 255.734375 342.433594 L 285.929688 372.628906 L 106.597656 560.777344 C 103.628906 563.890625 100.035156 565.585938 95.90625 565.8125 C 91.78125 566.042969 88.273438 564.746094 85.484375 561.953125 L 66.40625 542.878906 C 63.617188 540.089844 62.320312 536.582031 62.546875 532.453125 C 62.777344 528.328125 64.472656 524.734375 67.585938 521.765625 Z M 255.734375 342.433594 " fill-opacity="1" fill-rule="evenodd"/></g><path fill="#ecba78" d="M 245.179688 352.621094 C 234.273438 343.355469 221.050781 333.3125 202.628906 319.605469 L 267.019531 255.210938 C 309.085938 311.75 316.613281 319.277344 373.152344 361.339844 L 308.757812 425.734375 C 295.046875 407.308594 285.007812 394.089844 275.742188 383.179688 C 265.84375 371.527344 256.832031 362.519531 245.179688 352.621094 Z M 245.179688 352.621094 " fill-opacity="1" fill-rule="evenodd"/><path fill="#e3a76f" d="M 245.179688 352.621094 C 234.273438 343.355469 221.050781 333.3125 202.628906 319.605469 L 267.019531 255.210938 L 267.578125 255.957031 L 214.808594 308.730469 C 233.234375 322.4375 246.457031 332.480469 257.363281 341.742188 C 269.015625 351.640625 278.027344 360.652344 287.925781 372.304688 C 297.0625 383.0625 306.957031 396.074219 320.382812 414.109375 L 308.757812 425.734375 C 295.046875 407.308594 285.007812 394.089844 275.742188 383.183594 C 265.84375 371.527344 256.832031 362.519531 245.179688 352.621094 Z M 245.179688 352.621094 " fill-opacity="1" fill-rule="evenodd"/><path fill="#c48958" d="M 264.042969 227.414062 L 279.304688 242.675781 C 283.5 246.875 283.5 253.738281 279.304688 257.9375 L 205.351562 331.890625 C 201.15625 336.085938 194.289062 336.085938 190.09375 331.890625 L 174.832031 316.628906 C 170.636719 312.433594 170.636719 305.566406 174.832031 301.371094 L 248.785156 227.417969 C 252.980469 223.21875 259.847656 223.21875 264.042969 227.414062 Z M 264.042969 227.414062 " fill-opacity="1" fill-rule="evenodd"/><path fill="#a67858" d="M 264.042969 227.414062 L 269.679688 233.050781 C 265.480469 228.851562 258.617188 228.851562 254.421875 233.050781 L 180.464844 307.003906 C 176.269531 311.199219 176.269531 318.066406 180.464844 322.261719 L 174.828125 316.628906 C 170.632812 312.429688 170.632812 305.566406 174.828125 301.367188 L 248.785156 227.414062 C 252.980469 223.21875 259.847656 223.21875 264.042969 227.414062 Z M 264.042969 227.414062 " fill-opacity="1" fill-rule="evenodd"/><path fill="#c48958" d="M 385.683594 349.054688 L 400.945312 364.316406 C 405.140625 368.511719 405.140625 375.378906 400.945312 379.574219 L 326.992188 453.53125 C 322.796875 457.726562 315.929688 457.726562 311.734375 453.527344 L 296.472656 438.269531 C 292.277344 434.074219 292.277344 427.207031 296.472656 423.011719 L 370.425781 349.054688 C 374.621094 344.859375 381.488281 344.859375 385.683594 349.054688 Z M 385.683594 349.054688 " fill-opacity="1" fill-rule="evenodd"/><path fill="#a67858" d="M 393.027344 356.398438 L 400.945312 364.316406 C 405.140625 368.511719 405.140625 375.378906 400.945312 379.574219 L 326.992188 453.53125 C 322.796875 457.726562 315.929688 457.726562 311.734375 453.527344 L 303.816406 445.609375 C 308.011719 449.808594 314.878906 449.808594 319.074219 445.613281 L 393.027344 371.65625 C 397.226562 367.460938 397.222656 360.597656 393.027344 356.398438 Z M 393.027344 356.398438 " fill-opacity="1" fill-rule="evenodd"/><path fill="#8d9ca8" d="M 283.554688 550.453125 L 291.796875 513.859375 C 292.875 509.0625 297.351562 506.019531 302.269531 506.019531 L 420.097656 506.019531 C 425.011719 506.019531 429.488281 509.0625 430.566406 513.859375 L 438.808594 550.453125 Z M 283.554688 550.453125 " fill-opacity="1" fill-rule="evenodd"/><path fill="#8192a5" d="M 291.519531 515.085938 L 291.796875 513.859375 C 292.875 509.0625 297.351562 506.019531 302.269531 506.019531 L 420.09375 506.019531 C 425.011719 506.019531 429.484375 509.0625 430.566406 513.859375 L 438.808594 550.453125 L 429.015625 550.453125 L 422.734375 522.558594 C 421.65625 517.765625 417.179688 514.71875 412.261719 514.71875 L 294.4375 514.71875 C 293.4375 514.722656 292.457031 514.847656 291.519531 515.085938 Z M 291.519531 515.085938 " fill-opacity="1" fill-rule="evenodd"/></svg>